<svg id="Capa_1" enable-background="new 0 0 512 512" height="512" viewBox="0 0 512 512" width="512" xmlns="http://www.w3.org/2000/svg" xmlns:xlink="http://www.w3.org/1999/xlink"><linearGradient id="SVGID_1_" gradientUnits="userSpaceOnUse" x1="241" x2="241" y1="481" y2="45"><stop offset="0" stop-color="#ffe59a"/><stop offset="1" stop-color="#ffffd5"/></linearGradient><linearGradient id="SVGID_2_" gradientUnits="userSpaceOnUse" x1="256" x2="256" y1="512" y2="0"><stop offset="0" stop-color="#fd5900"/><stop offset="1" stop-color="#ffde00"/></linearGradient><g><g><g><path d="m226 331c8.401 0 15-6.599 15-15v-166l30-14.998-30-15.002v-45l-241-30v241c0 24.901 20.099 45 45 45h106v150h331v-150z" fill="url(#SVGID_1_)"/></g></g><g><g><path d="m497 301h-76v-256c0-24.901-20.099-45-45-45s-45 20.099-45 45v60c0 8.401-6.599 15-15 15h-75v30h75c24.901 0 45-20.099 45-45v-60c0-8.401 6.599-15 15-15s15 6.599 15 15v256h-255c-8.401 0-15 6.599-15 15v181c0 8.401 6.599 15 15 15h361c8.401 0 15-6.599 15-15v-181c0-8.401-6.599-15-15-15zm-151 60c8.401 0 15 6.599 15 15s-6.599 15-15 15-15-6.599-15-15 6.599-15 15-15zm-60 0c8.401 0 15 6.599 15 15s-6.599 15-15 15-15-6.599-15-15 6.599-15 15-15zm-60 90h-30c-8.401 0-15-6.599-15-15s6.599-15 15-15h30c8.401 0 15 6.599 15 15s-6.599 15-15 15zm0-60h-30c-8.401 0-15-6.599-15-15s6.599-15 15-15h30c8.401 0 15 6.599 15 15s-6.599 15-15 15zm150 60h-90c-8.401 0-15-6.599-15-15s6.599-15 15-15h90c8.401 0 15 6.599 15 15s-6.599 15-15 15zm60 0c-8.401 0-15-6.599-15-15s6.599-15 15-15 15 6.599 15 15-6.599 15-15 15zm0-60h-30c-8.401 0-15-6.599-15-15s6.599-15 15-15h30c8.401 0 15 6.599 15 15s-6.599 15-15 15zm-255-196c0-5.684-3.208-10.869-8.291-13.418l-90-45c-4.644-2.314-10.166-2.08-14.59.659s-7.119 7.559-7.119 12.759v90c0 5.2 2.695 10.02 7.119 12.759 4.34 2.699 9.854 3.011 14.59.659l90-45c5.083-2.549 8.291-7.734 8.291-13.418zm60-120c0-8.291-6.709-15-15-15h-11.918c-1.31-2.314-3.082-7.414-3.082-15s1.772-12.686 3.082-15h11.918c8.291 0 15-6.709 15-15s-6.709-15-15-15h-181c-24.814 0-45 20.186-45 45s20.186 45 45 45h181c8.291 0 15-6.709 15-15z" fill="url(#SVGID_2_)"/></g></g></g></svg>