<svg id="Capa_1" enable-background="new 0 0 512 512" height="512" viewBox="0 0 512 512" width="512" xmlns="http://www.w3.org/2000/svg" xmlns:xlink="http://www.w3.org/1999/xlink"><linearGradient id="SVGID_1_" gradientUnits="userSpaceOnUse" x1="256" x2="256" y1="512" y2="0"><stop offset="0" stop-color="#fd3a84"/><stop offset="1" stop-color="#ffa68d"/></linearGradient><linearGradient id="SVGID_2_" gradientUnits="userSpaceOnUse" x1="256" x2="256" y1="391" y2="46.008"><stop offset="0" stop-color="#ffc2cc"/><stop offset="1" stop-color="#fff2f4"/></linearGradient><g id="Class_1_"><g><g><path d="m256 391c-41.353 0-75 33.647-75 75v31c0 8.291 6.709 15 15 15h120c8.291 0 15-6.709 15-15v-31c0-41.353-33.647-75-75-75zm-181 0c-41.353 0-75 33.647-75 75v31c0 8.291 6.709 15 15 15h120c8.291 0 15-6.709 15-15v-31c0-41.353-33.647-75-75-75zm362 0c-41.353 0-75 33.647-75 75v31c0 8.291 6.709 15 15 15h120c8.291 0 15-6.709 15-15v-31c0-41.353-33.647-75-75-75zm-362-90h362c8.291 0 15-6.709 15-15v-271c0-8.291-6.709-15-15-15h-362c-8.291 0-15 6.709-15 15v271c0 8.291 6.709 15 15 15z" fill="url(#SVGID_1_)"/></g></g><g><g><path d="m256 301c-24.814 0-45 20.186-45 45s20.186 45 45 45 45-20.186 45-45-20.186-45-45-45zm-181 0c-24.814 0-45 20.186-45 45s20.186 45 45 45 45-20.186 45-45-20.186-45-45-45zm362 0c-24.814 0-45 20.186-45 45s20.186 45 45 45 45-20.186 45-45-20.186-45-45-45zm-218.881-137.241c4.34 2.699 9.854 3.011 14.59.659l90-45c5.083-2.549 8.291-7.734 8.291-13.418s-3.208-10.869-8.291-13.418l-90-45c-4.658-2.3-10.181-2.08-14.59.659-4.424 2.739-7.119 7.559-7.119 12.759v90c0 5.2 2.695 10.02 7.119 12.759zm157.881 47.241h-196v-15c0-8.291-6.709-15-15-15s-15 6.709-15 15v15h-15c-8.291 0-15 6.709-15 15s6.709 15 15 15h241c8.291 0 15-6.709 15-15s-6.709-15-15-15z" fill="url(#SVGID_2_)"/></g></g></g></svg>